<?xml version="1.0" standalone="no"?>
<!DOCTYPE svg PUBLIC "-//W3C//DTD SVG 20010904//EN"
 "http://www.w3.org/TR/2001/REC-SVG-20010904/DTD/svg10.dtd">
<svg version="1.0" xmlns="http://www.w3.org/2000/svg"
 width="866.000000pt" height="866.000000pt" viewBox="0 0 866.000000 866.000000"
 preserveAspectRatio="xMidYMid meet">
<metadata>
Created by potrace 1.11, written by Peter Selinger 2001-2013
</metadata>
<g transform="translate(0.000000,866.000000) scale(0.100000,-0.100000)"
fill="#000000" stroke="none">
<path d="M6308 8616 c-1 -2 -52 -6 -113 -9 -155 -8 -385 -63 -513 -123 -19 -9
-50 -23 -70 -32 -45 -21 -175 -94 -182 -102 -3 -3 -21 -17 -40 -30 -60 -42
-170 -138 -201 -175 -9 -11 -31 -36 -48 -55 -48 -54 -144 -197 -184 -275 -40
-79 -87 -182 -92 -205 -2 -8 -10 -31 -18 -50 -9 -20 -25 -74 -37 -120 -28
-106 -25 -96 -35 -155 -4 -27 -12 -58 -17 -67 -5 -11 -5 -18 1 -18 6 0 6 -12
0 -32 -9 -28 -12 -270 -6 -403 2 -35 -1 -40 -18 -38 -24 2 -79 12 -109 18 -12
2 -43 7 -71 10 -27 4 -63 8 -80 11 -188 23 -507 19 -722 -10 -21 -3 -56 -8
-78 -11 -23 -3 -52 -8 -65 -10 -14 -3 -41 -8 -60 -11 -19 -3 -53 -10 -75 -16
-22 -5 -51 -12 -64 -15 -14 -2 -28 -6 -32 -8 -4 -3 -24 -7 -45 -11 -22 -3 -47
-10 -56 -15 -10 -5 -18 -7 -18 -4 0 3 -8 1 -18 -4 -11 -6 -30 -12 -43 -15 -41
-8 -272 -92 -376 -136 -122 -52 -284 -133 -386 -194 -43 -25 -83 -46 -88 -46
-5 0 -9 -4 -9 -10 0 -5 -7 -10 -15 -10 -8 0 -15 -4 -15 -10 0 -5 -5 -10 -11
-10 -6 0 -21 -8 -34 -17 -12 -10 -33 -25 -45 -33 -213 -143 -459 -371 -639
-595 -40 -49 -79 -98 -86 -107 -7 -9 -19 -27 -26 -40 -6 -13 -15 -25 -19 -28
-9 -7 -110 -158 -110 -165 0 -4 -11 -21 -24 -38 -42 -57 -185 -342 -257 -512
-30 -73 -43 -106 -56 -150 -8 -27 -20 -56 -25 -62 -6 -7 -7 -13 -4 -13 4 0 2
-9 -4 -21 -6 -11 -13 -30 -16 -42 -2 -12 -13 -51 -24 -87 -10 -36 -22 -76 -25
-90 -26 -126 -55 -273 -60 -310 -3 -25 -8 -56 -10 -70 -24 -150 -24 -583 -1
-740 3 -19 8 -57 11 -85 4 -27 8 -52 10 -55 2 -3 6 -30 10 -60 3 -29 8 -56 10
-60 2 -4 7 -20 9 -36 11 -57 15 -75 41 -171 14 -54 38 -134 53 -178 14 -44 27
-82 27 -85 2 -6 7 -18 72 -185 31 -77 59 -144 64 -149 5 -6 9 -16 9 -23 0 -8
4 -19 10 -26 5 -7 33 -57 61 -112 56 -109 111 -202 146 -251 13 -17 23 -34 23
-39 0 -4 16 -27 35 -51 19 -23 35 -45 35 -48 0 -3 6 -14 14 -23 8 -10 38 -47
66 -83 128 -164 301 -340 460 -470 30 -25 57 -47 60 -50 18 -18 91 -70 99 -70
5 0 11 -3 13 -7 5 -13 76 -63 87 -63 6 0 11 -3 11 -7 0 -7 54 -41 178 -114 15
-8 56 -31 92 -51 36 -19 76 -41 90 -49 14 -7 27 -14 30 -14 3 -1 46 -20 95
-44 50 -24 108 -50 130 -58 22 -8 54 -21 70 -28 78 -34 286 -102 388 -126 20
-5 54 -13 75 -18 90 -22 208 -44 303 -56 19 -2 54 -7 79 -10 98 -14 492 -21
545 -11 11 2 56 7 99 11 43 4 86 8 95 10 16 3 95 14 138 20 29 4 203 43 273
62 30 8 62 16 70 18 8 2 47 14 85 26 39 12 75 23 80 25 10 2 111 39 155 57 14
6 30 11 35 12 6 2 31 11 55 22 44 20 80 35 90 38 25 8 186 91 188 97 2 4 10 8
18 8 20 0 238 132 360 218 367 259 678 605 916 1017 16 28 32 58 35 67 3 10 9
18 14 18 5 0 9 9 9 19 0 11 3 21 8 23 10 4 52 90 52 106 0 6 5 12 10 12 6 0
10 4 10 10 0 5 14 39 31 76 32 71 85 206 114 289 9 28 20 57 23 65 6 17 6 16
27 90 20 71 21 74 39 145 36 145 34 140 41 194 4 25 8 48 11 52 2 4 7 36 10
71 3 34 8 66 10 69 23 38 22 624 -1 739 -3 14 -7 45 -10 70 -2 25 -8 66 -14
90 -5 25 -12 61 -15 80 -6 43 -76 316 -89 350 -3 8 -20 60 -38 115 -17 55 -35
105 -39 110 -4 6 -11 21 -15 35 -31 104 -187 420 -280 566 -19 30 -35 59 -35
64 0 6 -4 10 -8 10 -4 0 -16 15 -27 33 -10 17 -32 51 -49 73 -17 23 -40 54
-50 68 -23 32 -30 32 -100 0 -31 -14 -62 -27 -69 -28 -7 -2 -19 -6 -27 -9 -27
-12 -220 -77 -243 -82 -12 -2 -56 -14 -97 -25 -41 -12 -86 -23 -100 -26 -14
-3 -33 -7 -42 -10 -10 -3 -28 -7 -40 -10 -13 -2 -33 -6 -45 -9 -44 -10 -59
-13 -103 -21 -25 -5 -49 -9 -55 -10 -5 -1 -12 -3 -15 -4 -3 -1 -14 -3 -25 -4
-11 -2 -38 -6 -60 -10 -22 -4 -53 -8 -70 -11 -60 -8 -110 -16 -130 -20 -11 -3
-75 -79 -145 -172 -69 -91 -130 -171 -136 -177 -5 -6 -13 -19 -17 -28 -8 -22
-37 -24 -37 -3 0 14 17 79 46 180 8 28 16 57 18 65 2 8 16 60 31 115 15 55 28
105 28 110 0 6 -27 56 -61 111 -34 56 -62 106 -62 111 0 4 -11 25 -25 45 -35
51 -210 403 -213 428 -1 3 -17 39 -36 82 -19 42 -40 96 -47 120 -7 23 -16 48
-20 53 -4 6 -10 23 -13 38 -2 15 -7 31 -11 37 -3 5 -8 18 -10 27 -2 10 -15 59
-28 108 -28 105 -37 145 -43 200 -2 22 -6 46 -9 53 -6 15 -4 15 83 -7 40 -11
73 -19 75 -19 17 1 288 -83 342 -106 17 -7 46 -19 65 -26 184 -68 470 -215
660 -339 75 -48 226 -157 240 -171 3 -3 30 -25 60 -50 132 -108 308 -284 410
-413 25 -31 50 -56 55 -56 35 -1 387 205 425 248 3 3 26 23 51 43 72 57 217
207 262 268 119 166 235 374 272 490 10 30 20 60 24 65 3 6 6 15 7 20 1 6 9
37 17 70 30 116 41 202 41 330 0 225 -36 400 -125 610 -7 17 -13 32 -14 35 -3
12 -69 139 -88 170 -47 77 -129 181 -203 257 -84 85 -176 163 -191 163 -6 0
-18 9 -28 20 -10 11 -24 20 -32 20 -7 0 -13 5 -13 10 0 6 -5 10 -10 10 -6 0
-42 18 -80 39 -38 22 -79 42 -92 46 -13 4 -30 13 -38 20 -8 6 -42 22 -75 34
-33 13 -69 27 -80 32 -20 9 -98 37 -113 40 -4 1 -11 3 -17 4 -99 24 -159 34
-245 41 -41 3 -80 7 -87 9 -6 2 -13 2 -15 1z m-1598 -3899 c249 -4 282 -7 345
-40 153 -80 175 -105 266 -312 29 -66 155 -514 163 -580 2 -11 6 -29 9 -40 3
-11 8 -33 11 -48 3 -16 10 -44 16 -63 7 -20 9 -38 6 -41 -3 -4 -2 -11 3 -17 4
-6 11 -26 14 -43 6 -32 5 -33 -26 -34 -98 -2 -3397 -11 -3434 -9 -13 0 -13 3
17 140 12 52 23 106 26 120 32 152 141 542 170 607 8 17 14 35 14 39 0 4 15
37 33 73 29 59 72 111 123 151 28 22 124 72 124 65 0 -3 8 -1 18 4 9 5 33 12
52 16 19 4 421 8 894 10 472 2 860 6 863 8 2 3 12 3 21 1 9 -2 132 -6 272 -7z
m1337 -988 c38 -12 78 -70 75 -108 -5 -68 -59 -122 -119 -121 -15 1 -52 0 -81
-1 -29 -1 -55 0 -58 4 -3 3 -18 2 -33 -3 -16 -4 -40 -6 -53 -3 -22 4 -27 13
-37 64 -7 32 -12 61 -12 64 -1 2 -7 28 -15 57 -7 29 -14 54 -14 55 0 7 322 0
347 -8z m-4149 -87 c-10 -48 -21 -100 -24 -117 -3 -16 -8 -32 -10 -34 -2 -3
-63 -4 -134 -4 -116 1 -131 4 -151 22 -13 12 -26 21 -30 21 -13 0 -27 55 -23
94 3 39 37 80 76 95 10 3 85 7 167 8 l148 1 -19 -86z m3709 -346 c90 -4 155
-17 208 -43 47 -23 155 -97 155 -106 0 -5 14 -20 30 -34 17 -13 30 -31 30 -39
0 -8 5 -14 10 -14 6 0 10 -7 10 -15 0 -8 5 -15 10 -15 6 0 9 -3 8 -7 -1 -5 9
-30 21 -57 12 -27 24 -67 28 -90 9 -57 9 -763 0 -808 -35 -184 -189 -348 -372
-399 -75 -20 -92 -21 -1588 -25 -832 -2 -1654 -5 -1827 -5 -173 -1 -335 2
-360 6 -218 35 -397 207 -435 420 -4 22 -8 200 -9 395 -2 274 1 370 12 420 41
187 204 350 395 394 60 14 9 14 2475 20 596 2 1086 6 1089 9 3 4 10 4 14 1 5
-3 48 -7 96 -8z m-53 -1914 c-2 -115 -42 -209 -111 -261 -16 -11 -33 -25 -39
-30 -12 -10 -59 -26 -60 -20 0 2 -7 -1 -15 -7 -14 -10 -116 -11 -154 -1 -98
26 -182 110 -208 207 -17 62 -21 161 -7 170 5 3 141 6 302 8 l293 2 -1 -68z
m-2950 -15 c-4 -120 -22 -163 -95 -236 -146 -145 -390 -100 -481 89 -15 32
-22 68 -24 124 -2 44 -1 82 1 86 2 4 138 7 303 8 l298 2 -2 -73z"/>
<path d="M5087 2773 c-98 -22 -184 -92 -231 -189 -90 -183 -12 -396 174 -482
81 -38 188 -39 280 -5 8 4 18 5 23 5 4 -1 7 2 7 7 0 5 8 12 18 15 50 16 134
127 160 211 12 40 9 150 -6 202 -49 170 -244 278 -425 236z"/>
<path d="M2320 2769 c-138 -21 -272 -146 -294 -274 -24 -142 13 -251 119 -348
104 -94 292 -110 412 -34 106 67 165 168 169 289 2 82 -8 127 -43 194 -27 50
-102 119 -160 145 -53 24 -144 37 -203 28z"/>
<path d="M3260 2594 c-163 -48 -205 -264 -73 -373 21 -18 54 -36 73 -42 23 -7
210 -9 530 -7 547 3 524 1 589 69 47 49 63 92 59 164 -1 36 -6 65 -10 65 -5 0
-8 5 -8 11 0 24 -55 80 -101 103 l-49 24 -486 -1 c-325 -1 -499 -6 -524 -13z"/>
</g>
</svg>
